<svg id="Capa_1" enable-background="new 0 0 512 512" height="512" viewBox="0 0 512 512" width="512" xmlns="http://www.w3.org/2000/svg"><g><g><path d="m405.1 239.433c9.149 0 16.567 7.417 16.567 16.567v16.567c0 9.149-7.417 16.567-16.567 16.567v5h-298.2v-5c-9.15 0-16.567-7.417-16.567-16.567v-16.567c0-9.15 7.417-16.567 16.567-16.567v-5h298.2z" fill="#ffc269"/><path d="m405.1 239.433v-5h-23v5c9.15 0 16.567 7.417 16.567 16.567v16.567c0 9.149-7.417 16.567-16.567 16.567v5h23v-5c9.149 0 16.567-7.417 16.567-16.567v-16.567c0-9.15-7.418-16.567-16.567-16.567z" fill="#faa75d"/><path d="m405.1 338.835c9.149 0 16.567 7.417 16.567 16.567v16.567c0 9.15-7.417 16.567-16.567 16.567v5h-298.2v-5c-9.15 0-16.567-7.417-16.567-16.567v-16.567c0-9.15 7.417-16.567 16.567-16.567v-5h298.2z" fill="#ffc269"/><path d="m405.1 338.835v-5h-23v5c9.15 0 16.567 7.417 16.567 16.567v16.567c0 9.15-7.417 16.567-16.567 16.567v5h23v-5c9.149 0 16.567-7.417 16.567-16.567v-16.567c0-9.15-7.418-16.567-16.567-16.567z" fill="#faa75d"/><path d="m222.866 239.433h-115.966c-9.15 0-16.567-7.417-16.567-16.567v-33.133c0-9.15 7.417-16.567 16.567-16.567h298.2c9.149 0 16.567 7.417 16.567 16.567v33.133c0 9.15-7.417 16.567-16.567 16.567h-16.567z" fill="#f4dbb3"/><path d="m405.1 173.167h-23c9.15 0 16.567 7.417 16.567 16.567v33.133c0 9.149-7.417 16.567-16.567 16.567h6.433 16.567c9.149 0 16.567-7.417 16.567-16.567v-33.133c0-9.15-7.418-16.567-16.567-16.567z" fill="#eac89f"/><g><path d="m222.866 338.833h-115.966c-9.15 0-16.567-7.417-16.567-16.567v-16.566c0-9.15 7.417-16.567 16.567-16.567h298.2c9.149 0 16.567 7.417 16.567 16.567v16.566c0 9.149-7.417 16.567-16.567 16.567h-16.567z" fill="#f4dbb3"/><path d="m405.1 289.133h-23c9.15 0 16.567 7.417 16.567 16.567v16.566c0 9.149-7.417 16.567-16.567 16.567h6.433 16.567c9.149 0 16.567-7.417 16.567-16.567v-16.566c0-9.15-7.418-16.567-16.567-16.567z" fill="#eac89f"/></g><g><path d="m106.9 443.233v-5c-9.15 0-16.567-7.417-16.567-16.567v-16.566c0-9.15 7.417-16.567 16.567-16.567h298.2c9.149 0 16.567 7.417 16.567 16.567v16.566c0 9.15-7.417 16.567-16.567 16.567v5z" fill="#f4dbb3"/><path d="m405.1 388.533h-23c9.15 0 16.567 7.417 16.567 16.567v16.566c0 9.149-7.417 16.567-16.567 16.567h6.433 16.567c9.149 0 16.567-7.417 16.567-16.567v-16.566c0-9.15-7.418-16.567-16.567-16.567z" fill="#eac89f"/></g><g><path d="m322.267 178.167h-132.534v-46.7c0-4.418 3.582-8 8-8h116.533c4.418 0 8 3.582 8 8v46.7z" fill="#f4dbb3"/><path d="m314.267 123.467h-22.895c4.418 0 8 3.582 8 8v46.7h22.895v-46.7c0-4.419-3.582-8-8-8z" fill="#eac89f"/></g><ellipse cx="256" cy="90.333" fill="#e55964" rx="33.133" ry="33.133" transform="matrix(.17 -.986 .986 .17 123.53 327.288)"/><path d="m421.667 189.733c0-9.15-7.417-16.567-16.567-16.567h-298.2c-9.15 0-16.567 7.417-16.567 16.567v8.567c0 4.418 3.582 8 8 8h107.967c9.149 0 16.567 7.417 16.567 16.567v49.266c0 9.286 7.599 17.172 16.883 16.998 9.003-.169 16.25-7.52 16.25-16.564v-16.133c0-9.286 7.599-17.172 16.883-16.998 9.004.169 16.25 7.52 16.25 16.564v82.399c0 9.286 7.599 17.172 16.883 16.998 9.004-.169 16.25-7.52 16.25-16.564v-98.966c0-9.286 7.599-17.172 16.883-16.998 9.003.169 16.25 7.52 16.25 16.564v49.266c0 9.286 7.599 17.172 16.883 16.998 9.003-.169 16.25-7.52 16.25-16.564v-66.267c0-9.15 7.417-16.567 16.567-16.567h8.567c4.418 0 8-3.582 8-8v-8.566z" fill="#966a5b"/><g fill="#8a5a51"><path d="m249.883 239.436c-9.284-.174-16.883 7.712-16.883 16.998v16.133c0 4.626-1.904 8.802-4.962 11.807 3.042 2.991 7.172 4.841 11.712 4.756 9.003-.169 16.25-7.52 16.25-16.564v-16.133c0-4.745 1.992-9.116 5.171-12.242-2.919-2.868-6.89-4.672-11.288-4.755z"/><path d="m405.1 173.167h-23c9.15 0 16.567 7.417 16.567 16.567v8.567c0 4.418-3.582 8-8 8h-8.567c-9.15 0-16.567 7.417-16.567 16.567v66.267c0 4.626-1.904 8.802-4.962 11.807 3.043 2.991 7.172 4.841 11.712 4.756 9.003-.169 16.25-7.52 16.25-16.564v-66.267c0-9.15 7.417-16.567 16.567-16.567h8.567c4.418 0 8-3.582 8-8v-8.567c0-9.149-7.418-16.566-16.567-16.566z"/><path d="m316.15 222.87c-9.284-.174-16.883 7.712-16.883 16.998v98.966c0 4.626-1.904 8.802-4.962 11.808 3.043 2.991 7.172 4.841 11.712 4.756 9.004-.169 16.25-7.52 16.25-16.564v-98.966c0-4.745 1.992-9.116 5.171-12.242-2.92-2.87-6.891-4.674-11.288-4.756z"/></g><g><path d="m421.667 471.367c0 18.299-14.834 33.133-33.133 33.133h-265.067c-18.299 0-33.133-14.834-33.133-33.133v-5.617h331.333z" fill="#d6e0ff"/><path d="m398.667 465.75v5.617c0 18.299-14.834 33.133-33.133 33.133h23c18.299 0 33.133-14.834 33.133-33.133v-5.617z" fill="#c2d1ff"/><path d="m471.367 471.367c9.15 0 16.567-7.417 16.567-16.567 0-9.149-7.417-16.567-16.567-16.567h-430.734c-9.149 0-16.567 7.417-16.567 16.567s7.417 16.567 16.567 16.567z" fill="#edf4ff"/><path d="m471.367 438.233h-23c9.149 0 16.567 7.417 16.567 16.567s-7.417 16.567-16.567 16.567h23c9.149 0 16.567-7.417 16.567-16.567-.001-9.15-7.418-16.567-16.567-16.567z" fill="#d6e0ff"/></g><path d="m256 57.2c-4.044 0-7.917.727-11.5 2.053 12.63 4.675 21.633 16.825 21.633 31.08s-9.004 26.406-21.633 31.08c3.583 1.326 7.456 2.053 11.5 2.053 18.299 0 33.133-14.834 33.133-33.133s-14.834-33.133-33.133-33.133z" fill="#db404f"/></g><circle cx="90.333" cy="405.1" fill="#e55964" r="33.133"/><path d="m90.333 371.967c-4.044 0-7.917.727-11.5 2.053 12.63 4.675 21.633 16.825 21.633 31.081 0 14.255-9.004 26.405-21.633 31.08 3.583 1.326 7.456 2.053 11.5 2.053 18.299 0 33.133-14.835 33.133-33.133.001-18.3-14.834-33.134-33.133-33.134z" fill="#db404f"/><circle cx="256" cy="405.1" fill="#e55964" r="33.133"/><path d="m256 371.967c-4.044 0-7.917.727-11.5 2.053 12.63 4.675 21.633 16.825 21.633 31.081 0 14.255-9.003 26.405-21.633 31.08 3.583 1.326 7.456 2.053 11.5 2.053 18.299 0 33.133-14.835 33.133-33.133 0-18.3-14.834-33.134-33.133-33.134z" fill="#db404f"/><circle cx="421.667" cy="405.1" fill="#e55964" r="33.133"/><path d="m421.667 371.967c-4.044 0-7.917.727-11.5 2.053 12.63 4.675 21.633 16.825 21.633 31.081 0 14.255-9.004 26.405-21.633 31.08 3.583 1.326 7.456 2.053 11.5 2.053 18.299 0 33.133-14.835 33.133-33.133 0-18.3-14.834-33.134-33.133-33.134z" fill="#db404f"/></g><path d="m471.367 430.733h-18.201c5.705-6.998 9.134-15.921 9.134-25.633 0-19.842-14.3-36.397-33.133-39.928v-9.772c0-6.415-2.528-12.248-6.634-16.566 4.106-4.319 6.634-10.151 6.634-16.567v-16.567c0-6.415-2.528-12.248-6.634-16.567 4.106-4.319 6.634-10.151 6.634-16.566v-16.567c0-6.415-2.528-12.248-6.634-16.567 4.106-4.319 6.634-10.151 6.634-16.566v-33.133c0-13.27-10.796-24.067-24.066-24.067h-17.067c-4.142 0-7.5 3.358-7.5 7.5s3.358 7.5 7.5 7.5h17.066c4.999 0 9.066 4.067 9.066 9.067v9.066h-9.066c-13.271 0-24.067 10.796-24.067 24.067v66.267c0 5-4.067 9.067-9.066 9.067-5 0-9.067-4.067-9.067-9.067v-49.7c0-13.27-10.796-24.066-24.066-24.066s-24.067 10.796-24.067 24.066v99.4c0 4.999-4.067 9.066-9.066 9.066-4.998 0-9.064-4.065-9.067-9.061 0-.002 0-.003 0-.005 0-.003 0-.006 0-.01v-49.681c0-.004 0-.007 0-.01s0-.006 0-.01v-33.123c0-13.27-10.796-24.067-24.066-24.067s-24.068 10.797-24.068 24.067v16.567c0 4.999-4.067 9.066-9.067 9.066-4.999 0-9.066-4.067-9.066-9.066v-49.7c0-13.27-10.796-24.067-24.067-24.067h-108.466v-9.066c0-4.999 4.067-9.067 9.066-9.067h251.133c4.142 0 7.5-3.358 7.5-7.5s-3.358-7.5-7.5-7.5h-28.267v-34.2c0-8.547-6.953-15.5-15.5-15.5h-26.768c5.705-6.998 9.134-15.921 9.134-25.633 0-19.842-14.3-36.398-33.133-39.928v-26.339c0-5 4.067-9.067 9.067-9.067h8.283c4.142 0 7.5-3.358 7.5-7.5s-3.358-7.5-7.5-7.5h-8.283c-13.27 0-24.066 10.796-24.066 24.067v26.339c-18.833 3.53-33.133 20.085-33.133 39.928 0 9.712 3.429 18.635 9.134 25.633h-26.768c-8.547 0-15.5 6.953-15.5 15.5v34.2h-75.333c-13.27 0-24.066 10.796-24.066 24.067v33.133c0 6.415 2.528 12.248 6.635 16.566-4.106 4.319-6.635 10.151-6.635 16.567v16.567c0 6.415 2.528 12.248 6.635 16.566-4.106 4.319-6.635 10.151-6.635 16.567v16.566c0 6.415 2.528 12.248 6.635 16.567-4.106 4.319-6.635 10.151-6.635 16.566v9.772c-18.834 3.532-33.134 20.087-33.134 39.929 0 9.712 3.429 18.635 9.134 25.633h-18.201c-13.27 0-24.066 10.796-24.066 24.066 0 13.271 10.796 24.067 24.066 24.067h42.906c3.53 18.834 20.086 33.134 39.928 33.134h41.416c4.142 0 7.5-3.358 7.5-7.5s-3.358-7.5-7.5-7.5h-41.416c-11.526 0-21.296-7.647-24.511-18.133h314.089c-3.215 10.486-12.986 18.133-24.512 18.133h-193.651c-4.142 0-7.5 3.358-7.5 7.5s3.358 7.5 7.5 7.5h193.651c19.842 0 36.397-14.3 39.928-33.133h42.906c13.27 0 24.066-10.796 24.066-24.067 0-13.27-10.796-24.067-24.066-24.067zm-241-340.399c0-14.134 11.499-25.633 25.633-25.633s25.633 11.499 25.633 25.633-11.499 25.633-25.633 25.633-25.633-11.499-25.633-25.633zm-33.134 41.133c0-.276.224-.5.5-.5h116.533c.276 0 .5.224.5.5v34.2h-51.266v-17.35c0-4.142-3.358-7.5-7.5-7.5s-7.5 3.358-7.5 7.5v17.35h-51.267zm250.067 273.633c0 14.134-11.499 25.633-25.633 25.633s-25.633-11.499-25.633-25.633 11.499-25.633 25.633-25.633 25.633 11.499 25.633 25.633zm-317.366-9.067h86.465c-.668 2.918-1.033 5.95-1.033 9.067 0 9.712 3.429 18.635 9.134 25.633h-102.667c5.705-6.998 9.134-15.921 9.134-25.633 0-3.117-.365-6.149-1.033-9.067zm100.433 9.067c0-14.134 11.499-25.633 25.633-25.633s25.633 11.499 25.633 25.633-11.499 25.633-25.633 25.633-25.633-11.499-25.633-25.633zm65.234-9.067h86.465c-.668 2.918-1.033 5.95-1.033 9.067 0 9.712 3.429 18.635 9.134 25.633h-102.668c5.705-6.998 9.134-15.921 9.134-25.633 0-3.117-.364-6.149-1.032-9.067zm100.432-114.4v-34.7h9.067c4.999 0 9.066 4.067 9.066 9.067v16.567c0 4.999-4.067 9.066-9.066 9.066zm9.067-67.833h9.066v9.067c0 4.999-4.067 9.066-9.066 9.066h-9.067v-9.066c0-5 4.068-9.067 9.067-9.067zm-33.133 99.4c10.652 0 19.704-6.959 22.863-16.567h10.27c4.999 0 9.066 4.067 9.066 9.067v16.566c0 5-4.067 9.067-9.066 9.067h-75.333v-34.7h19.336c3.16 9.608 12.212 16.567 22.864 16.567zm-33.134-82.833c4.999 0 9.066 4.067 9.066 9.066v42.2h-18.133v-42.2c.001-4.999 4.068-9.066 9.067-9.066zm-33.133 132.533c10.652 0 19.704-6.958 22.863-16.566h76.537c4.999 0 9.066 4.067 9.066 9.066v9.772c-10.289 1.929-19.224 7.741-25.214 15.861h-100.24c-7.405-10.039-19.31-16.566-32.714-16.566s-25.308 6.527-32.714 16.566h-100.237c-5.989-8.12-14.924-13.932-25.214-15.861v-9.772c0-4.999 4.067-9.066 9.066-9.066h175.936c3.161 9.607 12.213 16.566 22.865 16.566zm-207.866-40.633v-16.567c0-4.999 4.067-9.067 9.066-9.067h174.733v34.7h-174.733c-4.999 0-9.066-4.067-9.066-9.066zm165.666-49.7v-16.567c0-4.999 4.067-9.067 9.067-9.067 4.999 0 9.066 4.067 9.066 9.067v25.633h-19.912c1.144-2.8 1.779-5.86 1.779-9.066zm-156.6 9.066c-4.999 0-9.066-4.067-9.066-9.066v-16.567c0-4.999 4.067-9.067 9.066-9.067h108.467v25.634c0 3.207.635 6.266 1.779 9.066zm99.4-67.833c4.999 0 9.067 4.067 9.067 9.067v9.066h-108.467c-4.999 0-9.066-4.067-9.066-9.066v-9.067zm-141.6 191.3c0-14.134 11.499-25.633 25.633-25.633s25.633 11.499 25.633 25.633-11.499 25.633-25.633 25.633-25.633-11.499-25.633-25.633zm406.667 58.767h-430.734c-4.999 0-9.066-4.067-9.066-9.067 0-4.999 4.067-9.066 9.066-9.066h430.733c4.999 0 9.066 4.067 9.066 9.066.001 4.999-4.066 9.067-9.065 9.067z"/></svg>