<svg id="Capa_1" enable-background="new 0 0 497.562 497.562" height="512" viewBox="0 0 497.562 497.562" width="512" xmlns="http://www.w3.org/2000/svg"><g><g><path d="m340.425 190.527-50.837-59.902h-159.163v359.437h210z" fill="#b6e6fa"/><path d="m340.425 190.527-50.837-59.902h-23.288l54.125 67.244v272.193h-190v20h210z" fill="#8ad8f6"/><path d="m130.425 190.125h210v299.938h-210z" fill="#71e4bf"/><path d="m320.425 190.125v279.937h-190v20h210v-299.937z" fill="#0ea8b2"/><path d="m340.425 190.527 73.862-87.033c-15.986-23.727-43.101-39.333-73.862-39.333s-57.876 15.607-73.862 39.333z" fill="#ffc277"/><path d="m340.425 64.161c-30.761 0-57.876 15.607-73.862 39.333l11.644 13.721s7.067-7.613 14.465-13.864 29.753-19.189 47.752-19.189c18 0 35.03 6.989 47.753 19.189l-61.361 71.142 13.608 16.035 73.862-87.033c-15.985-23.728-43.1-39.334-73.861-39.334z" fill="#ff905b"/><path d="m174.182 240.699h75.164v75.164h-75.164z" fill="#b6e6fa" transform="matrix(.94 -.342 .342 .94 -82.407 89.21)"/><path d="m234.225 230.112-18.794 6.84 18.868 51.837-51.838 18.868 6.841 18.793 70.631-25.707z" fill="#8ad8f6"/><path d="m222.175 364.699h75.164v75.164h-75.164z" fill="#b6e6fa" transform="matrix(-.94 -.342 .342 -.94 366.261 869.144)"/><path d="m289.132 372.979-18.867 51.837-51.226-20.544-7.451 20.471 70.631 25.707 25.708-70.63z" fill="#8ad8f6"/><path d="m227.162 41.211-136.974 61.141 43.577-85.559z" fill="#ffc277"/><path d="m197.956 54.248 29.206-13.037-93.397-24.418-9.292 18.243z" fill="#ff905b"/></g><g><g><path d="m332.925 295.312h15v15h-15z"/><path d="m154.175 430.073v37.438h37.5v-15h-22.5v-22.438z"/><path d="m238.708 220.5-84.727 30.837 30.838 84.726 84.727-30.837zm-65.501 39.802 56.536-20.576 20.577 56.535-56.536 20.576z"/><path d="m317.539 375.337-84.726-30.838-30.838 84.727 84.726 30.838zm-96.338 44.924 20.577-56.535 56.536 20.576-20.577 56.536z"/><path d="m423.681 104.016-3.174-4.712c-17.99-26.701-47.927-42.643-80.082-42.643s-62.092 15.941-80.082 42.643l-3.175 4.712 16.218 19.109h-83.052l-21.431-47.696 80.814-36.073-110.159-28.8-4.711-10.556-13.697 6.113 4.501 10.084-51.77 101.647 81.324-36.301 18.683 41.582h-50.964v374.438h225v-172.219h-15v157.219h-195v-284.438h15.5v-15h-15.5v-45h42.704l20.219 45h-32.673v15h164.75v82.156h15v-87.001zm-285.973-78.44 66.898 17.49-98.111 43.794zm155.645 61.053 11.546 19.999 12.99-7.5-11.549-20.003c8.314-3.828 17.29-6.26 26.585-7.115v23.088h15v-23.088c9.295.855 18.271 3.287 26.585 7.115l-11.549 20.003 12.99 7.5 11.546-19.999c6.464 4.575 12.295 10.109 17.266 16.496l-64.338 75.811-12.997-15.315-51.341-60.496c4.97-6.386 10.802-11.92 17.266-16.496zm-96.279 51.496h89.043l38.19 45h-107.014z"/></g></g></g></svg>